<svg width="24" height="3" viewBox="0 0 48 4" fill="none" xmlns="http://www.w3.org/2000/svg">
    <path d="M3 -1.36048e-05C2.73498 -0.0037617 2.47185 0.0452 2.22591 0.144027C1.97998 0.242855 1.75614 0.389577 1.5674 0.575666C1.37866 0.761755 1.22878 0.983499 1.12649 1.22801C1.02419 1.47253 0.971516 1.73494 0.971516 1.99999C0.971516 2.26504 1.02419 2.52744 1.12649 2.77196C1.22878 3.01647 1.37866 3.23822 1.5674 3.42431C1.75614 3.6104 1.97998 3.75712 2.22591 3.85595C2.47185 3.95477 2.73498 4.00373 3 3.99999H13C13.265 4.00373 13.5282 3.95477 13.7741 3.85595C14.02 3.75712 14.2439 3.6104 14.4326 3.42431C14.6213 3.23822 14.7712 3.01647 14.8735 2.77196C14.9758 2.52744 15.0285 2.26504 15.0285 1.99999C15.0285 1.73494 14.9758 1.47253 14.8735 1.22801C14.7712 0.983499 14.6213 0.761755 14.4326 0.575666C14.2439 0.389577 14.02 0.242855 13.7741 0.144027C13.5282 0.0452 13.265 -0.0037617 13 -1.36048e-05H3ZM19 -1.36048e-05C18.735 -0.0037617 18.4719 0.0452 18.2259 0.144027C17.98 0.242855 17.7561 0.389577 17.5674 0.575666C17.3787 0.761755 17.2288 0.983499 17.1265 1.22801C17.0242 1.47253 16.9715 1.73494 16.9715 1.99999C16.9715 2.26504 17.0242 2.52744 17.1265 2.77196C17.2288 3.01647 17.3787 3.23822 17.5674 3.42431C17.7561 3.6104 17.98 3.75712 18.2259 3.85595C18.4719 3.95477 18.735 4.00373 19 3.99999H29C29.265 4.00373 29.5281 3.95477 29.7741 3.85595C30.02 3.75712 30.2439 3.6104 30.4326 3.42431C30.6213 3.23822 30.7712 3.01647 30.8735 2.77196C30.9758 2.52744 31.0285 2.26504 31.0285 1.99999C31.0285 1.73494 30.9758 1.47253 30.8735 1.22801C30.7712 0.983499 30.6213 0.761755 30.4326 0.575666C30.2439 0.389577 30.02 0.242855 29.7741 0.144027C29.5281 0.0452 29.265 -0.0037617 29 -1.36048e-05H19ZM35 -1.36048e-05C34.735 -0.0037617 34.4719 0.0452 34.2259 0.144027C33.98 0.242855 33.7561 0.389577 33.5674 0.575666C33.3787 0.761755 33.2288 0.983499 33.1265 1.22801C33.0242 1.47253 32.9715 1.73494 32.9715 1.99999C32.9715 2.26504 33.0242 2.52744 33.1265 2.77196C33.2288 3.01647 33.3787 3.23822 33.5674 3.42431C33.7561 3.6104 33.98 3.75712 34.2259 3.85595C34.4719 3.95477 34.735 4.00373 35 3.99999H45C45.265 4.00373 45.5281 3.95477 45.7741 3.85595C46.02 3.75712 46.2439 3.6104 46.4326 3.42431C46.6213 3.23822 46.7712 3.01647 46.8735 2.77196C46.9758 2.52744 47.0285 2.26504 47.0285 1.99999C47.0285 1.73494 46.9758 1.47253 46.8735 1.22801C46.7712 0.983499 46.6213 0.761755 46.4326 0.575666C46.2439 0.389577 46.02 0.242855 45.7741 0.144027C45.5281 0.0452 45.265 -0.0037617 45 -1.36048e-05H35Z" fill="#FFFDFD"/>
</svg>
